<svg xmlns="http://www.w3.org/2000/svg" viewBox="0 0 512 640" width="512" height="640">
  <!-- Laury — mascotte originale du jeu, v3 : le visage v2 (casquette, boucles) dans la
       grammaire Petit Kairos (nuit/or/cyan, écharpe, le petit monde offert). Source maître. -->
  <defs>
    <radialGradient id="irisBrown" cx="0.4" cy="0.35" r="0.9">
      <stop offset="0" stop-color="#9a5a2e"/>
      <stop offset="0.55" stop-color="#6b3a1c"/>
      <stop offset="1" stop-color="#331a0c"/>
    </radialGradient>
    <radialGradient id="globeGrad" cx="0.38" cy="0.3" r="1">
      <stop offset="0" stop-color="#7dd3fc"/>
      <stop offset="0.6" stop-color="#38bdf8"/>
      <stop offset="1" stop-color="#175f96"/>
    </radialGradient>
    <radialGradient id="globeGlow" cx="0.5" cy="0.5" r="0.5">
      <stop offset="0.55" stop-color="#38bdf8" stop-opacity="0.35"/>
      <stop offset="1" stop-color="#38bdf8" stop-opacity="0"/>
    </radialGradient>
    <linearGradient id="capGrad" x1="0" y1="0" x2="0" y2="1">
      <stop offset="0" stop-color="#1b2342"/>
      <stop offset="1" stop-color="#10162e"/>
    </linearGradient>
    <linearGradient id="teeGrad" x1="0" y1="0" x2="0" y2="1">
      <stop offset="0" stop-color="#fbfaf6"/>
      <stop offset="1" stop-color="#e9e7de"/>
    </linearGradient>
    <linearGradient id="pantsNight" x1="0" y1="0" x2="0" y2="1">
      <stop offset="0" stop-color="#26305a"/>
      <stop offset="1" stop-color="#181f38"/>
    </linearGradient>
    <filter id="sticker" x="-12%" y="-12%" width="124%" height="124%">
      <feMorphology in="SourceAlpha" operator="dilate" radius="6" result="d"/>
      <feFlood flood-color="#ffffff" result="f"/>
      <feComposite in="f" in2="d" operator="in" result="outline"/>
      <feMerge><feMergeNode in="outline"/><feMergeNode in="SourceGraphic"/></feMerge>
    </filter>
  </defs>

  <!-- ombre au sol (hors contour autocollant) -->
  <ellipse cx="258" cy="634" rx="126" ry="11" fill="#000000" opacity="0.30"/>

  <g filter="url(#sticker)" font-family="Arial, Helvetica, sans-serif">

    <!-- ===== torse : t-shirt blanc oversize ===== -->
    <path d="M 176 366 Q 216 348 258 348 Q 300 348 340 366 Q 356 372 358 392 Q 364 418 356 428
             L 324 420 Q 328 452 322 482 Q 258 498 194 482 Q 188 452 192 420 L 160 428
             Q 152 418 158 392 Q 160 372 176 366 Z" fill="url(#teeGrad)"/>
    <path d="M 158 414 Q 168 428 186 432 L 182 442 Q 162 436 154 422 Z" fill="#d9d6cb"/>
    <path d="M 358 414 Q 348 428 330 432 L 334 442 Q 354 436 362 422 Z" fill="#d9d6cb"/>
    <path d="M 214 436 Q 222 452 218 470" stroke="#dcd8cd" stroke-width="4" fill="none" stroke-linecap="round"/>
    <path d="M 302 438 Q 298 454 302 470" stroke="#dcd8cd" stroke-width="4" fill="none" stroke-linecap="round"/>
    <path d="M 194 478 Q 258 492 322 478" stroke="#d5d1c5" stroke-width="4" fill="none" stroke-linecap="round" opacity="0.8"/>
    <text x="258" y="440" font-size="16" font-weight="700" fill="#17181c" text-anchor="middle" letter-spacing="0.5">loryski</text>

    <!-- ===== bras droit du personnage (viewer droite) : poing sur la hanche ===== -->
    <path d="M 324 394 Q 354 404 360 440 Q 364 464 346 478 L 322 462 Q 332 428 318 408 Z" fill="#a7693d"/>
    <path d="M 316 382 Q 340 388 350 406 L 328 418 Q 320 400 306 394 Z" fill="#f6f5f0"/>
    <circle cx="338" cy="472" r="16" fill="#a7693d"/>
    <path d="M 328 464 Q 338 460 348 465" stroke="#7c4527" stroke-width="3" fill="none" stroke-linecap="round"/>

    <!-- ===== pantalon nuit, simple ===== -->
    <path d="M 198 470 L 318 470 Q 330 470 332 486 Q 344 540 340 584 L 264 588 Q 262 556 258 534
             Q 254 556 252 588 L 176 584 Q 172 540 184 486 Q 186 470 198 470 Z" fill="url(#pantsNight)"/>
    <path d="M 198 477 L 318 477" stroke="#141b32" stroke-width="4"/>
    <path d="M 208 500 Q 204 536 208 568" stroke="#141b32" stroke-width="4" fill="none" stroke-linecap="round"/>
    <path d="M 300 502 Q 306 538 302 568" stroke="#141b32" stroke-width="4" fill="none" stroke-linecap="round"/>

    <!-- ===== sneakers nuit, semelle d'or (comme les bottes d'avant) ===== -->
    <path d="M 164 580 Q 158 600 162 612 L 258 612 Q 258 598 250 586 Q 234 572 206 572 Q 180 572 164 580 Z" fill="#1a2138"/>
    <path d="M 192 582 Q 208 589 226 582" stroke="#10162e" stroke-width="4" fill="none" stroke-linecap="round"/>
    <path d="M 160 612 Q 154 628 176 630 L 246 630 Q 262 628 258 612 Z" fill="#ca8a04"/>
    <path d="M 268 586 Q 262 598 262 612 L 356 612 Q 360 600 354 580 Q 338 572 312 572 Q 284 572 268 586 Z" fill="#1a2138"/>
    <path d="M 294 582 Q 310 589 328 582" stroke="#10162e" stroke-width="4" fill="none" stroke-linecap="round"/>
    <path d="M 262 612 Q 258 628 278 630 L 348 630 Q 370 628 362 612 Z" fill="#ca8a04"/>

    <!-- ===== cou + écharpe cyan ===== -->
    <path d="M 238 336 L 278 336 L 276 362 Q 258 368 240 362 Z" fill="#935831"/>
    <path d="M 196 350 Q 258 330 320 350 Q 327 368 318 381 Q 258 360 198 381 Q 189 368 196 350 Z" fill="#38bdf8"/>
    <path d="M 198 381 Q 258 360 318 381 L 314 392 Q 258 372 202 392 Z" fill="#2494d1"/>
    <path d="M 304 374 Q 342 390 352 426 Q 356 442 344 452 Q 340 434 326 420 Q 310 406 296 388 Z" fill="#2494d1"/>

    <!-- ===== tête ===== -->
    <ellipse cx="154" cy="254" rx="13" ry="18" fill="#a7693d"/>
    <ellipse cx="362" cy="254" rx="13" ry="18" fill="#a7693d"/>
    <ellipse cx="156" cy="254" rx="6" ry="9" fill="#8f5530"/>
    <ellipse cx="360" cy="254" rx="6" ry="9" fill="#8f5530"/>
    <path d="M 158 240 Q 158 150 258 150 Q 358 150 358 240 Q 358 300 322 328 Q 290 350 258 350
             Q 226 350 194 328 Q 158 300 158 240 Z" fill="#a7693d"/>
    <!-- boucles sous la casquette -->
    <g fill="#170f08">
      <circle cx="170" cy="216" r="13"/><circle cx="185" cy="228" r="11"/><circle cx="166" cy="236" r="9"/><circle cx="181" cy="244" r="8"/>
      <circle cx="346" cy="216" r="13"/><circle cx="331" cy="228" r="11"/><circle cx="350" cy="236" r="9"/><circle cx="335" cy="244" r="8"/>
    </g>
    <path d="M 168 222 Q 174 216 180 222" stroke="#2e1d10" stroke-width="2.5" fill="none"/>
    <path d="M 336 230 Q 342 224 348 230" stroke="#2e1d10" stroke-width="2.5" fill="none"/>
    <!-- ombre de la visière sur le front -->
    <path d="M 172 208 Q 258 230 344 208 L 344 226 Q 258 250 172 226 Z" fill="#7c4527" opacity="0.45"/>

    <!-- ===== casquette de nuit (symétrique, bien posée) ===== -->
    <path d="M 150 172 Q 146 62 258 56 Q 370 62 366 172 Q 258 196 150 172 Z" fill="url(#capGrad)"/>
    <path d="M 222 62 Q 216 118 218 184" stroke="#0b1022" stroke-width="3" fill="none" opacity="0.8"/>
    <path d="M 294 62 Q 300 118 298 184" stroke="#0b1022" stroke-width="3" fill="none" opacity="0.8"/>
    <path d="M 172 116 Q 186 70 242 60 Q 202 80 188 122 Z" fill="#2c3763" opacity="0.7"/>
    <circle cx="258" cy="56" r="7" fill="#ca8a04"/>
    <text x="258" y="148" font-size="30" font-weight="700" fill="#f5f5f2" text-anchor="middle" letter-spacing="1">loryski</text>
    <path d="M 136 180 Q 124 202 146 213 Q 200 228 258 228 Q 316 228 370 213 Q 392 202 380 180
             Q 320 199 258 199 Q 196 199 136 180 Z" fill="#10162e"/>
    <path d="M 150 190 Q 258 216 366 190" stroke="#2c3763" stroke-width="3" fill="none" opacity="0.8"/>

    <!-- ===== visage ===== -->
    <path d="M 184 238 Q 210 228 236 235" stroke="#17100a" stroke-width="8" fill="none" stroke-linecap="round"/>
    <path d="M 280 235 Q 306 228 332 238" stroke="#17100a" stroke-width="8" fill="none" stroke-linecap="round"/>
    <ellipse cx="212" cy="272" rx="27" ry="31" fill="#ffffff"/>
    <ellipse cx="304" cy="272" rx="27" ry="31" fill="#ffffff"/>
    <circle cx="214" cy="275" r="19" fill="url(#irisBrown)"/>
    <circle cx="302" cy="275" r="19" fill="url(#irisBrown)"/>
    <circle cx="214" cy="275" r="19" fill="none" stroke="#24120a" stroke-width="2"/>
    <circle cx="302" cy="275" r="19" fill="none" stroke="#24120a" stroke-width="2"/>
    <circle cx="214" cy="275" r="8.5" fill="#140a05"/>
    <circle cx="302" cy="275" r="8.5" fill="#140a05"/>
    <circle cx="207" cy="265" r="6.5" fill="#ffffff"/>
    <circle cx="295" cy="265" r="6.5" fill="#ffffff"/>
    <circle cx="221" cy="285" r="2.8" fill="#ffffff" opacity="0.85"/>
    <circle cx="309" cy="285" r="2.8" fill="#ffffff" opacity="0.85"/>
    <path d="M 186 254 Q 212 242 238 254" stroke="#1c0f08" stroke-width="6" fill="none" stroke-linecap="round"/>
    <path d="M 278 254 Q 304 242 330 254" stroke="#1c0f08" stroke-width="6" fill="none" stroke-linecap="round"/>
    <path d="M 254 298 Q 260 304 254 308" stroke="#7c4527" stroke-width="5" fill="none" stroke-linecap="round"/>
    <path d="M 240 322 Q 258 332 278 320" stroke="#4a2413" stroke-width="5" fill="none" stroke-linecap="round"/>
    <ellipse cx="180" cy="302" rx="13" ry="7" fill="#c07a4a" opacity="0.35"/>
    <ellipse cx="336" cy="302" rx="13" ry="7" fill="#c07a4a" opacity="0.35"/>

    <!-- ===== bras gauche du personnage (viewer gauche) : il élève le petit monde ===== -->
    <path d="M 206 386 Q 168 388 150 420 Q 136 444 142 470 L 176 466 Q 178 434 196 416 Z" fill="#a7693d"/>
    <path d="M 208 378 Q 182 380 166 400 L 190 416 Q 200 398 216 392 Z" fill="#f6f5f0"/>
    <circle cx="128" cy="404" r="86" fill="url(#globeGlow)"/>
    <ellipse cx="140" cy="452" rx="24" ry="16" fill="#a7693d"/>
    <ellipse cx="94" cy="438" rx="10" ry="13" fill="#a7693d"/>
    <ellipse cx="164" cy="440" rx="10" ry="13" fill="#a7693d"/>
    <circle cx="128" cy="404" r="40" fill="url(#globeGrad)"/>
    <path d="M 104 388 Q 116 378 130 384 Q 142 390 138 400 Q 128 406 116 402 Q 104 398 104 388 Z" fill="#eab308" opacity="0.9"/>
    <path d="M 134 418 Q 148 412 158 420 Q 156 432 142 434 Q 132 430 134 418 Z" fill="#eab308" opacity="0.9"/>
    <path d="M 112 424 Q 120 420 124 426 Q 120 434 112 432 Z" fill="#eab308" opacity="0.75"/>
    <circle cx="128" cy="404" r="40" fill="none" stroke="#bfe7ff" stroke-width="2.5" opacity="0.65"/>
    <ellipse cx="118" cy="390" rx="14" ry="8" fill="#ffffff" opacity="0.35"/>
    <ellipse cx="140" cy="436" rx="11" ry="9" fill="#8f5530"/>

    <!-- étincelle d'or (accent du thème) -->
    <path d="M 380 300 L 385 313 L 398 318 L 385 323 L 380 336 L 375 323 L 362 318 L 375 313 Z" fill="#eab308"/>
  </g>
</svg>
